<?xml version="1.0" encoding="UTF-8"?>
<svg id="Camada_1" data-name="Camada 1" xmlns="http://www.w3.org/2000/svg" viewBox="0 0 100 100">
  <defs>
    <style>
      .cls-1 {
        fill: #ededed;
      }
    </style>
  </defs>
  <path class="cls-1" d="M71.04,93.23c-6.48,2.73-9.03-3.33-9.03-3.33l-7.17-17.03s-4.24,2.35-5.6,3.22c-1.63,1.04-6.3,4.45-6.3,4.45,0,0-1.78,1.34-4.23.25s-2.69-3.38-2.69-3.38l-.27-58.33s.16-2.41,2.61-3.45c3.07-1.29,4.94.27,4.94.27l41.81,40.61s1.84,1.67,1.28,4.43c-.51,2.54-3.58,3.18-3.58,3.18,0,0-5.55.89-7.39,1.26-1.94.39-7.71,1.81-7.71,1.81l7.27,17.26s2.55,6.06-3.93,8.79Z"/>
  <path class="cls-1" d="M23.25,67.25l-8.64,4.07s-3.19,1.23-4.5-1.54c-1.39-2.92,1.58-4.67,1.58-4.67l8.64-4.07s3.38-1.26,4.64,1.51c1.44,3.18-1.71,4.71-1.71,4.71Z"/>
  <path class="cls-1" d="M20.14,46.11l-9.55-.1s-3.4-.28-3.39-3.35c.02-3.23,3.46-3.52,3.46-3.52l9.55.1s3.59.34,3.52,3.37c-.08,3.5-3.59,3.49-3.59,3.49Z"/>
  <path class="cls-1" d="M61.9,16.14l4.72-8.3s1.89-2.84,4.57-1.33c2.81,1.59,1.4,4.73,1.4,4.73l-4.72,8.3s-2.04,2.98-4.66,1.44c-3.01-1.77-1.31-4.83-1.31-4.83Z"/>
  <path class="cls-1" d="M79.31,29.91l8.52-4.32s3.15-1.33,4.55,1.41c1.47,2.87-1.44,4.72-1.44,4.72l-8.52,4.32s-3.34,1.36-4.68-1.37c-1.54-3.14,1.57-4.76,1.57-4.76Z"/>
</svg>