<?xml version="1.0" encoding="UTF-8"?>
<svg id="Camada_1" xmlns="http://www.w3.org/2000/svg" viewBox="0 0 360 70">
  <defs>
    <style>
      .cls-1 {
        fill: #3da9ae;
      }

      .cls-2 {
        fill: #fff;
      }

      .cls-3 {
        fill: #f9f9f9;
      }
    </style>
  </defs>
  <g>
    <path class="cls-3" d="M24.97,13.77l.27,39.85c0,.59.48,1.06,1.06,1.07.22,0,.43-.07.61-.19l7.17-6.45c.48-.34,1.15-.22,1.48.27.04.06.07.12.1.18l5,11.54c.23.54.86.79,1.4.56,0,0,0,0,0,0l4.87-2.12c.54-.23.79-.86.56-1.4,0,0,0,0,0,0l-5-11.54c-.23-.54.02-1.17.56-1.4.06-.03.13-.05.2-.06l10.89-1.35c.57-.12.94-.69.82-1.27-.04-.19-.13-.37-.27-.51L26.81,13.04c-.56-.52-1.53-.68-1.84.73"/>
    <rect class="cls-3" x="4.81" y="28.21" width="13.61" height="4.19" rx="1.05" ry="1.05"/>
    <rect class="cls-3" x="5.85" y="42.87" width="13.61" height="4.19" rx="1.05" ry="1.05" transform="translate(-22.23 13.91) rotate(-32.6)"/>
    <rect class="cls-3" x="37.27" y="9.36" width="13.61" height="4.19" rx="1.05" ry="1.05" transform="translate(10.56 42.29) rotate(-57.19)"/>
    <rect class="cls-3" x="46.7" y="20.88" width="13.61" height="4.19" rx="1.05" ry="1.05" transform="translate(-4.32 29.83) rotate(-30)"/>
  </g>
  <g>
    <path class="cls-1" d="M88.17,61.52c-1.31,0-2.36-.42-3.17-1.25-.8-.83-1.11-1.83-.92-3.01l7.59-43.01h-12.89c-1.35,0-2.38-.36-3.1-1.09-.72-.73-1.08-1.59-1.08-2.58,0-1.1.39-2.03,1.16-2.79.78-.76,1.78-1.13,3.01-1.13h35.84c1.27,0,2.29.38,3.05,1.13.77.76,1.15,1.69,1.15,2.79,0,.99-.36,1.85-1.09,2.58s-1.77,1.09-3.11,1.09h-14.4l-7.73,43.85c-.15.88-.56,1.67-1.23,2.37s-1.7,1.05-3.08,1.05Z"/>
    <path class="cls-1" d="M132.35,62.08c-1.53,0-2.78-.4-3.74-1.21-.96-.8-1.63-1.89-2-3.25s-.46-2.88-.25-4.54l.03-.22c-1.1,1.36-2.17,2.56-3.21,3.59-1.04,1.03-2.04,1.9-3,2.62-.96.72-1.89,1.3-2.79,1.74-.9.44-1.76.76-2.58.95s-1.61.29-2.35.29c-1.46,0-2.7-.43-3.73-1.29-1.03-.86-1.75-2.04-2.17-3.56-.42-1.51-.46-3.25-.13-5.21l2.83-16.14c.24-1.34.83-2.33,1.75-2.96.92-.62,1.96-.94,3.1-.94s2.05.38,2.84,1.13,1.06,1.84.8,3.26l-2.66,14.57c-.07.47-.14,1.02-.2,1.67-.06.64-.05,1.21.03,1.71s.25.74.53.74c.21,0,.66-.38,1.37-1.15.71-.77,1.57-1.81,2.59-3.12,1.02-1.32,2.11-2.81,3.28-4.48,1.17-1.67,2.32-3.42,3.46-5.25,1.14-1.83,2.17-3.64,3.08-5.44.84-1.61,1.61-2.62,2.3-3.03.69-.41,1.54-.62,2.55-.62s1.97.34,2.82,1.02c.85.68,1.13,1.81.85,3.38l-2.69,15.27c-.19,1.03-.28,1.88-.27,2.55,0,.67.16,1.01.46,1.01.43,0,1.09-.49,1.98-1.47.89-.98,1.97-2.37,3.24-4.17s2.69-3.93,4.26-6.39c1.57-2.46,3.25-5.17,5.04-8.14.71-1.21,1.36-2.03,1.96-2.44.6-.41,1.48-.62,2.66-.62.6,0,1.17.14,1.71.43.54.29.93.62,1.18.99l4.48,6.61c.77,1.1,1.03,2.12.8,3.05-.23.93-.73,1.69-1.5,2.27-.78.6-1.77.82-2.97.67s-2.22-.82-3.08-2.02l-.64-.92c-1.36,2.07-2.65,3.98-3.87,5.73-1.21,1.75-2.39,3.33-3.53,4.74-1.14,1.41-2.27,2.65-3.39,3.71s-2.27,1.96-3.43,2.68c-1.17.72-2.39,1.26-3.67,1.62s-2.66.55-4.13.55Z"/>
    <path class="cls-1" d="M172.23,62.05c-1.4,0-2.73-.31-3.98-.92-1.25-.62-2.27-1.61-3.07-2.98-.79-1.37-1.19-3.19-1.19-5.45,0-2.76.42-5.42,1.25-7.97s1.98-4.82,3.43-6.82,3.15-3.58,5.07-4.74,3.98-1.74,6.17-1.74,4.15.37,5.95,1.12,3.2,1.79,4.19,3.14c.99,1.34,1.33,2.92,1.01,4.74-.28,1.64-.8,3.44-1.57,5.38-.77,1.94-1.73,3.87-2.9,5.79-1.17,1.92-2.5,3.66-3.99,5.24-1.49,1.58-3.11,2.84-4.86,3.8-1.75.95-3.58,1.43-5.51,1.43ZM171.95,51.99c0,.79.13,1.43.38,1.93.25.5.51.76.77.76.69,0,1.45-.31,2.28-.92s1.67-1.43,2.51-2.44,1.62-2.1,2.35-3.26c.73-1.17,1.34-2.32,1.84-3.45.49-1.13.82-2.12.97-2.98.13-.82-.17-1.46-.91-1.92-.74-.46-1.53-.69-2.37-.69-.92,0-1.83.46-2.75,1.39s-1.76,2.09-2.52,3.5c-.77,1.41-1.38,2.84-1.85,4.3s-.7,2.72-.7,3.78Z"/>
    <path class="cls-2" d="M208.9,62.05c-2.41,0-4.44-.4-6.08-1.21-1.64-.8-2.96-1.86-3.95-3.17-.99-1.31-1.71-2.73-2.16-4.26-.45-1.53-.67-3.03-.67-4.48,0-1.33.07-2.83.22-4.5s.34-3.32.56-4.95c.22-1.62.43-3.05.63-4.27s.33-2.05.41-2.48c.47-2.6,1.11-5.15,1.92-7.66s1.93-4.88,3.36-7.1c1.43-2.22,3.27-4.18,5.53-5.87,2.26-1.69,5.06-3.02,8.39-3.99,3.33-.97,7.34-1.46,12.01-1.46,1.57,0,2.89,0,3.95.03,1.06.02,1.94.08,2.62.18.68.1,1.21.28,1.58.52.71.5,1.17,1.14,1.37,1.91.21.77.17,1.52-.11,2.26-.28.74-.79,1.34-1.54,1.81-.37.21-.89.37-1.54.49-.65.12-1.5.21-2.55.27-1.05.06-2.35.08-3.92.08-3.44,0-6.37.33-8.78.99s-4.43,1.59-6.04,2.77c-1.61,1.19-2.91,2.55-3.91,4.1-1,1.55-1.78,3.22-2.35,5.02-.57,1.79-1.03,3.62-1.39,5.49-.11.73-.28,1.73-.5,3.01-.22,1.28-.45,2.69-.67,4.23-.22,1.54-.42,3.11-.58,4.71-.16,1.6-.24,3.09-.24,4.47,0,.75.11,1.45.34,2.12.22.66.55,1.25.98,1.76.43.51.95.92,1.55,1.21.61.29,1.29.43,2.06.43,1.4,0,2.85-.33,4.36-1s3.11-1.81,4.82-3.43c1.71-1.62,3.57-3.88,5.59-6.78.92-1.27,1.71-2.17,2.4-2.69.68-.52,1.52-.78,2.51-.78s1.88.31,2.66.92c.78.62,1.18,1.45,1.18,2.49,0,.37-.1.84-.29,1.39-.2.55-.79,1.58-1.78,3.1-3.38,4.99-6.98,8.62-10.79,10.9-3.81,2.28-7.53,3.42-11.15,3.42Z"/>
    <path class="cls-2" d="M240.96,61.52c-.65,0-1.32-.15-2-.45s-1.22-.76-1.61-1.37c-.39-.62-.5-1.4-.34-2.35l8.38-47.5c.21-1.18.72-2,1.54-2.48.82-.48,1.69-.71,2.61-.71,1.18,0,2.22.37,3.14,1.12.92.75,1.25,1.79,1.01,3.14l-8.27,46.91c-.22,1.2-.79,2.11-1.71,2.75-.92.64-1.83.95-2.75.95Z"/>
    <path class="cls-2" d="M256.59,61.52c-1.08,0-1.99-.38-2.7-1.13-.72-.76-.98-1.75-.77-2.98l3.78-21.6c.21-1.14.72-2.06,1.54-2.77.82-.71,1.75-1.06,2.77-1.06s2,.45,2.8,1.34c.8.9,1.08,2.04.84,3.42l-3.78,21.69c-.22,1.14-.79,1.94-1.71,2.41s-1.84.7-2.77.7ZM258.86,22.15c0-1.21.42-2.26,1.26-3.15.84-.89,1.89-1.33,3.14-1.33,1.18,0,2.23.42,3.15,1.27.92.85,1.39,1.92,1.39,3.21s-.44,2.31-1.33,3.18c-.89.87-1.96,1.3-3.21,1.3-1.18,0-2.21-.43-3.08-1.3-.88-.87-1.32-1.93-1.32-3.18Z"/>
    <path class="cls-2" d="M274.58,62.05c-1.59,0-3.01-.62-4.27-1.88s-1.89-3.19-1.89-5.83c0-1.14.1-2.43.31-3.88.21-1.45.5-2.94.9-4.47.39-1.53.86-2.99,1.4-4.38.54-1.39,1.14-2.59,1.79-3.6,1.1-1.64,2.52-2.91,4.25-3.81,1.73-.9,3.68-1.53,5.86-1.89,2.18-.36,4.47-.55,6.88-.55,1.03,0,1.9.37,2.62,1.12.72.75,1.08,1.56,1.08,2.44,0,.99-.36,1.84-1.08,2.56-.72.72-1.59,1.08-2.62,1.08-1.62,0-3.17.07-4.62.21-1.46.14-2.74.44-3.85.9-1.11.46-1.97,1.15-2.56,2.09-.39.64-.78,1.41-1.15,2.33-.37.92-.71,1.88-1.01,2.89s-.53,1.98-.7,2.91c-.17.93-.25,1.74-.25,2.41,0,.22.03.58.08,1.08.06.5.26.74.62.74.54,0,1.19-.29,1.96-.87.77-.58,1.54-1.27,2.31-2.09s1.47-1.57,2.07-2.28c.61-.71,1-1.19,1.19-1.43.75-.95,1.72-1.52,2.93-1.7,1.21-.18,2.2.01,2.98.57.75.52,1.13,1.28,1.16,2.26s-.24,1.93-.8,2.84c-1.01,1.55-2.14,2.95-3.4,4.2-1.26,1.25-2.59,2.33-3.98,3.22-1.39.9-2.79,1.59-4.19,2.07s-2.74.73-4.01.73Z"/>
    <path class="cls-2" d="M299.35,61.52c-1.14,0-2.08-.37-2.82-1.12-.74-.75-1.01-1.72-.83-2.91l8.35-47.27c.22-1.29.76-2.2,1.61-2.75.85-.54,1.75-.81,2.7-.81,1.29,0,2.29.36,3.01,1.07.72.71.96,1.77.71,3.19l-4.76,27.04c1.25-1.23,2.52-2.34,3.8-3.32,1.28-.98,2.56-1.76,3.85-2.34,1.29-.58,2.54-.87,3.75-.87,1.57,0,2.91.31,4.02.94s1.96,1.42,2.54,2.37c.58.95.87,1.91.87,2.86,0,1.92-.71,3.69-2.13,5.3-1.42,1.61-3.11,3.16-5.07,4.65l5.55,8.01c.39.58.62,1.13.7,1.64.07.51.06,1.04-.06,1.58-.19.82-.64,1.49-1.36,1.99-.72.5-1.5.76-2.34.76-.75,0-1.48-.21-2.2-.63-.72-.42-1.31-.97-1.78-1.64l-7.34-10.59c-.36-.54-.43-1.1-.24-1.68.2-.58.58-1.05,1.16-1.43,1.64-.95,3.03-1.89,4.15-2.8,1.12-.92,1.97-1.73,2.55-2.44.58-.71.87-1.21.87-1.51,0-.32-.13-.58-.38-.8-.25-.21-.56-.32-.91-.32-.77,0-1.77.45-3.03,1.36-1.25.91-2.63,2.11-4.13,3.6-1.5,1.5-3.02,3.15-4.55,4.96l-1.85,10.51c-.21,1.25-.71,2.13-1.51,2.65-.8.51-1.77.77-2.91.77Z"/>
    <path class="cls-2" d="M339.28,61.52h-5.83c-1.25,0-2.29-.31-3.11-.94s-1.23-1.53-1.23-2.7.42-2.15,1.27-2.76c.85-.61,1.89-.91,3.12-.91h5.77c1.44,0,2.47-.07,3.08-.21.62-.14.95-.47,1.01-1,.09-.39.06-.71-.08-.97-.15-.25-.42-.51-.81-.77l-5.32-3.53c-1.18-.78-2.28-1.77-3.32-2.94-1.04-1.18-1.54-2.73-1.5-4.65.09-1.72.66-3.18,1.69-4.4,1.04-1.21,2.36-2.15,3.98-2.8,1.62-.65,3.32-.98,5.11-.98h6.02c1.66,0,2.97.27,3.91.81s1.42,1.5,1.42,2.89c0,1.2-.44,2.12-1.32,2.77-.88.65-1.83.98-2.86.98h-7.17c-.9,0-1.6.06-2.1.18-.5.12-.76.4-.76.83,0,.3.1.58.29.84s.53.55,1,.87l6.81,4.54c.99.65,1.82,1.64,2.49,2.97.67,1.33.86,2.85.56,4.57-.35,1.92-1.18,3.42-2.48,4.48-1.3,1.06-2.82,1.8-4.55,2.21-1.74.41-3.44.62-5.1.62Z"/>
  </g>
</svg>