<?xml version="1.0" encoding="UTF-8"?>
<svg id="Camada_1" data-name="Camada 1" xmlns="http://www.w3.org/2000/svg" viewBox="0 0 456.98 118.47">
  <defs>
    <style>
      .cls-1 {
        fill: #3ca9ae;
      }

      .cls-2 {
        fill: #ededed;
      }
    </style>
  </defs>
  <g>
    <path class="cls-2" d="M81.39,102.47c-6.48,2.73-9.03-3.33-9.03-3.33l-7.17-17.03s-4.24,2.35-5.6,3.22c-1.63,1.04-6.3,4.45-6.3,4.45,0,0-1.78,1.34-4.23.25s-2.69-3.38-2.69-3.38l-.27-58.33s.16-2.41,2.61-3.45c3.07-1.29,4.94.27,4.94.27l41.81,40.61s1.84,1.67,1.28,4.43c-.51,2.54-3.58,3.18-3.58,3.18,0,0-5.55.89-7.39,1.26-1.94.39-7.71,1.81-7.71,1.81l7.27,17.26s2.55,6.06-3.93,8.79Z"/>
    <path class="cls-2" d="M33.6,76.48l-8.64,4.07s-3.19,1.23-4.5-1.54c-1.39-2.92,1.58-4.67,1.58-4.67l8.64-4.07s3.38-1.26,4.64,1.51c1.44,3.18-1.71,4.71-1.71,4.71Z"/>
    <path class="cls-2" d="M30.49,55.35l-9.55-.1s-3.4-.28-3.39-3.35c.02-3.23,3.46-3.52,3.46-3.52l9.55.1s3.59.34,3.52,3.37c-.08,3.5-3.59,3.49-3.59,3.49Z"/>
    <path class="cls-2" d="M72.25,25.37l4.72-8.3s1.89-2.84,4.57-1.33c2.81,1.59,1.4,4.73,1.4,4.73l-4.72,8.3s-2.04,2.98-4.66,1.44c-3.01-1.77-1.31-4.83-1.31-4.83Z"/>
    <path class="cls-2" d="M89.66,39.14l8.52-4.32s3.15-1.33,4.55,1.41c1.47,2.87-1.44,4.72-1.44,4.72l-8.52,4.32s-3.34,1.36-4.68-1.37c-1.54-3.14,1.57-4.76,1.57-4.76Z"/>
  </g>
  <g>
    <path class="cls-1" d="M134.09,90.37c-1.5,0-2.71-.48-3.63-1.43-.92-.95-1.27-2.1-1.06-3.45l8.71-49.32h-14.78c-1.54,0-2.73-.42-3.55-1.25s-1.24-1.82-1.24-2.96c0-1.26.44-2.33,1.33-3.2.89-.87,2.04-1.3,3.45-1.3h41.09c1.46,0,2.62.43,3.5,1.3.88.87,1.32,1.93,1.32,3.2,0,1.14-.42,2.12-1.25,2.96-.84.84-2.02,1.25-3.57,1.25h-16.51l-8.87,50.28c-.17,1.01-.64,1.91-1.41,2.71-.77.8-1.95,1.2-3.53,1.2Z"/>
    <path class="cls-1" d="M184.76,91.01c-1.76,0-3.19-.46-4.29-1.38-1.1-.92-1.87-2.16-2.3-3.73-.43-1.56-.53-3.3-.29-5.2l.03-.26c-1.26,1.56-2.49,2.93-3.68,4.11-1.19,1.18-2.33,2.18-3.44,3s-2.17,1.49-3.2,1.99c-1.03.5-2.01.87-2.96,1.09-.94.23-1.84.34-2.7.34-1.67,0-3.1-.49-4.27-1.48-1.18-.99-2.01-2.35-2.49-4.08s-.53-3.73-.14-5.98l3.24-18.51c.28-1.54.95-2.67,2.01-3.39,1.06-.72,2.24-1.08,3.55-1.08s2.35.43,3.26,1.3c.91.87,1.22,2.12.92,3.74l-3.05,16.71c-.09.54-.16,1.17-.23,1.91-.06.74-.05,1.39.03,1.96.09.57.29.85.61.85.24,0,.76-.44,1.57-1.32.81-.88,1.8-2.07,2.97-3.58,1.17-1.51,2.42-3.22,3.76-5.14s2.66-3.92,3.97-6.02c1.31-2.1,2.48-4.18,3.53-6.23.96-1.84,1.84-3,2.63-3.47.79-.47,1.77-.71,2.92-.71s2.25.39,3.23,1.17c.97.78,1.3,2.07.98,3.87l-3.08,17.51c-.21,1.18-.32,2.15-.3,2.92.01.77.19,1.16.53,1.16.49,0,1.25-.56,2.26-1.69s2.25-2.72,3.71-4.79c1.46-2.07,3.08-4.51,4.88-7.33,1.8-2.82,3.73-5.93,5.78-9.33.81-1.39,1.56-2.32,2.25-2.8.69-.47,1.7-.71,3.05-.71.69,0,1.34.17,1.96.5s1.07.71,1.35,1.14l5.14,7.58c.88,1.26,1.18,2.43.92,3.5-.27,1.07-.84,1.94-1.72,2.6-.9.69-2.03.94-3.41.77-1.37-.17-2.55-.94-3.53-2.31l-.74-1.06c-1.56,2.38-3.04,4.57-4.43,6.57s-2.74,3.81-4.05,5.43c-1.31,1.62-2.6,3.04-3.89,4.26-1.29,1.22-2.6,2.24-3.94,3.07-1.34.82-2.74,1.45-4.21,1.86-1.47.42-3.05.63-4.74.63Z"/>
    <path class="cls-1" d="M230.48,90.98c-1.61,0-3.13-.35-4.56-1.06-1.44-.71-2.61-1.85-3.52-3.42-.91-1.57-1.37-3.66-1.37-6.25,0-3.17.48-6.22,1.43-9.14.95-2.92,2.27-5.53,3.94-7.82,1.67-2.29,3.61-4.1,5.81-5.43s4.56-1.99,7.07-1.99,4.76.43,6.83,1.29c2.07.86,3.67,2.06,4.8,3.6,1.14,1.54,1.52,3.35,1.16,5.43-.32,1.88-.92,3.94-1.8,6.17-.88,2.23-1.99,4.44-3.33,6.63-1.34,2.2-2.87,4.2-4.58,6.01-1.71,1.81-3.57,3.26-5.57,4.35-2,1.09-4.11,1.64-6.31,1.64ZM230.16,79.44c0,.9.14,1.64.43,2.22.29.58.58.87.88.87.79,0,1.66-.35,2.62-1.06.95-.71,1.91-1.64,2.88-2.8s1.86-2.4,2.7-3.74c.84-1.34,1.54-2.66,2.1-3.95s.94-2.44,1.11-3.42c.15-.94-.2-1.68-1.04-2.2-.85-.52-1.75-.79-2.72-.79-1.05,0-2.1.53-3.15,1.59-1.05,1.06-2.01,2.4-2.89,4.02-.88,1.62-1.59,3.26-2.12,4.93-.54,1.67-.8,3.12-.8,4.34Z"/>
    <path class="cls-2" d="M272.53,90.98c-2.76,0-5.09-.46-6.97-1.38-1.88-.92-3.4-2.13-4.53-3.63s-1.96-3.13-2.47-4.88c-.51-1.76-.77-3.47-.77-5.14,0-1.52.09-3.24.26-5.16.17-1.92.39-3.81.64-5.67.26-1.86.5-3.5.72-4.9.22-1.4.38-2.35.47-2.84.54-2.98,1.27-5.91,2.2-8.79.93-2.88,2.22-5.59,3.86-8.14,1.64-2.55,3.75-4.79,6.35-6.73s5.8-3.46,9.62-4.58,8.41-1.67,13.77-1.67c1.8,0,3.31.01,4.53.03,1.22.02,2.22.09,3,.21.78.12,1.39.32,1.82.59.81.58,1.34,1.31,1.57,2.18.24.88.19,1.74-.13,2.59-.32.85-.91,1.54-1.77,2.07-.43.24-1.02.42-1.77.56-.75.14-1.72.24-2.92.31-1.2.06-2.7.1-4.5.1-3.94,0-7.3.38-10.07,1.14-2.77.76-5.08,1.82-6.92,3.18-1.84,1.36-3.34,2.93-4.48,4.71-1.15,1.78-2.05,3.69-2.7,5.75-.65,2.06-1.18,4.16-1.59,6.3-.13.84-.32,1.99-.58,3.45-.26,1.47-.51,3.08-.77,4.85-.26,1.77-.48,3.57-.66,5.4-.18,1.83-.27,3.54-.27,5.12,0,.86.13,1.67.39,2.43.26.76.63,1.44,1.12,2.02.49.59,1.09,1.05,1.78,1.38.7.33,1.48.5,2.36.5,1.61,0,3.27-.38,5-1.14,1.72-.76,3.57-2.07,5.53-3.94,1.96-1.86,4.1-4.45,6.41-7.77,1.05-1.46,1.96-2.48,2.75-3.08.78-.6,1.74-.9,2.88-.9s2.15.35,3.05,1.06c.9.71,1.35,1.66,1.35,2.86,0,.43-.11.96-.34,1.59-.23.63-.91,1.82-2.04,3.55-3.88,5.72-8,9.88-12.37,12.5-4.37,2.61-8.63,3.92-12.79,3.92Z"/>
    <path class="cls-2" d="M309.28,90.37c-.75,0-1.52-.17-2.3-.51s-1.4-.87-1.85-1.57-.58-1.61-.39-2.7l9.61-54.46c.24-1.35.82-2.3,1.77-2.84s1.94-.82,2.99-.82c1.35,0,2.55.43,3.6,1.29,1.05.86,1.44,2.06,1.16,3.6l-9.48,53.78c-.26,1.37-.91,2.42-1.96,3.15-1.05.73-2.1,1.09-3.15,1.09Z"/>
    <path class="cls-2" d="M327.21,90.37c-1.24,0-2.28-.43-3.1-1.3-.83-.87-1.12-2.01-.88-3.42l4.34-24.77c.24-1.31.82-2.37,1.77-3.18.94-.81,2-1.22,3.18-1.22s2.29.51,3.21,1.54c.92,1.03,1.24,2.33.96,3.92l-4.34,24.87c-.26,1.31-.91,2.23-1.96,2.76-1.05.54-2.11.8-3.18.8ZM329.81,45.23c0-1.39.48-2.6,1.45-3.61.96-1.02,2.16-1.53,3.6-1.53,1.35,0,2.55.49,3.61,1.46,1.06.97,1.59,2.2,1.59,3.68s-.51,2.65-1.53,3.65c-1.02,1-2.24,1.49-3.68,1.49-1.35,0-2.53-.5-3.53-1.49-1.01-1-1.51-2.21-1.51-3.65Z"/>
    <path class="cls-2" d="M347.83,90.98c-1.82,0-3.45-.72-4.9-2.15-1.45-1.43-2.17-3.66-2.17-6.68,0-1.31.12-2.79.35-4.45.24-1.66.58-3.37,1.03-5.12.45-1.76.99-3.43,1.61-5.03.62-1.6,1.31-2.97,2.06-4.13,1.26-1.88,2.89-3.34,4.87-4.37,1.98-1.03,4.22-1.75,6.71-2.17,2.49-.42,5.12-.63,7.89-.63,1.18,0,2.18.43,3,1.29.82.86,1.24,1.79,1.24,2.79,0,1.14-.41,2.12-1.24,2.94-.83.82-1.83,1.24-3,1.24-1.86,0-3.63.08-5.3.24-1.67.16-3.14.5-4.42,1.03-1.27.53-2.25,1.32-2.94,2.39-.45.73-.89,1.62-1.32,2.67-.43,1.05-.81,2.15-1.16,3.31s-.61,2.27-.8,3.34-.29,1.99-.29,2.76c0,.26.03.67.1,1.24.06.57.3.85.71.85.62,0,1.37-.33,2.25-1s1.76-1.46,2.65-2.39c.89-.93,1.68-1.8,2.38-2.62s1.15-1.36,1.37-1.64c.86-1.09,1.98-1.74,3.36-1.94,1.38-.2,2.52.02,3.42.66.86.6,1.3,1.46,1.33,2.59s-.27,2.21-.92,3.26c-1.16,1.78-2.46,3.38-3.9,4.82s-2.97,2.67-4.56,3.69c-1.6,1.03-3.2,1.82-4.8,2.38-1.61.56-3.14.84-4.59.84Z"/>
    <path class="cls-2" d="M376.23,90.37c-1.31,0-2.38-.43-3.23-1.29-.85-.86-1.16-1.97-.95-3.34l9.57-54.2c.26-1.48.87-2.53,1.85-3.15.97-.62,2.01-.93,3.1-.93,1.48,0,2.63.41,3.45,1.22.82.81,1.1,2.03.82,3.66l-5.46,31c1.43-1.41,2.89-2.68,4.35-3.81s2.94-2.02,4.42-2.68c1.48-.66,2.91-1,4.31-1,1.8,0,3.34.36,4.61,1.08,1.27.72,2.24,1.62,2.91,2.72.66,1.09,1,2.18,1,3.28,0,2.21-.81,4.23-2.44,6.07-1.63,1.84-3.57,3.62-5.81,5.33l6.36,9.19c.45.66.72,1.29.8,1.88.09.59.06,1.19-.06,1.81-.21.94-.73,1.7-1.56,2.28-.83.58-1.72.87-2.68.87-.86,0-1.7-.24-2.52-.72s-1.5-1.11-2.04-1.88l-8.42-12.14c-.41-.62-.5-1.26-.27-1.93.23-.66.67-1.21,1.33-1.64,1.88-1.09,3.47-2.16,4.76-3.21,1.29-1.05,2.26-1.98,2.92-2.79s1-1.39,1-1.74c0-.36-.14-.67-.43-.92s-.64-.37-1.04-.37c-.88,0-2.03.52-3.47,1.56-1.44,1.04-3.01,2.42-4.74,4.13-1.72,1.71-3.46,3.61-5.22,5.69l-2.12,12.05c-.24,1.44-.81,2.45-1.74,3.04-.92.59-2.03.88-3.34.88Z"/>
    <path class="cls-2" d="M422.01,90.37h-6.68c-1.44,0-2.62-.36-3.57-1.08-.94-.72-1.41-1.75-1.41-3.1s.49-2.47,1.46-3.16c.97-.7,2.17-1.04,3.58-1.04h6.62c1.65,0,2.83-.08,3.53-.24.71-.16,1.09-.54,1.16-1.14.11-.45.07-.82-.1-1.11s-.48-.58-.93-.88l-6.1-4.05c-1.35-.9-2.62-2.02-3.81-3.37-1.19-1.35-1.76-3.13-1.72-5.33.11-1.97.75-3.65,1.94-5.04,1.19-1.39,2.71-2.46,4.56-3.21,1.85-.75,3.81-1.12,5.86-1.12h6.91c1.91,0,3.4.31,4.48.93s1.62,1.72,1.62,3.31c0,1.37-.5,2.43-1.51,3.18-1.01.75-2.1,1.12-3.28,1.12h-8.22c-1.03,0-1.83.07-2.41.21s-.87.46-.87.95c0,.34.11.66.34.96.23.3.6.63,1.14,1l7.81,5.2c1.14.75,2.09,1.88,2.86,3.41.77,1.52.99,3.27.64,5.24-.41,2.21-1.35,3.92-2.84,5.14-1.49,1.22-3.23,2.07-5.22,2.54s-3.94.71-5.85.71Z"/>
  </g>
</svg>