<?xml version="1.0" encoding="UTF-8"?>
<svg id="Camada_1" xmlns="http://www.w3.org/2000/svg" viewBox="0 0 180 35">
  <defs>
    <style>
      .cls-1 {
        fill: #3da9ae;
      }

      .cls-2 {
        fill: #fff;
      }

      .cls-3 {
        fill: #f9f9f9;
      }
    </style>
  </defs>
  <g>
    <path class="cls-3" d="M12.49,6.94l.14,19.93c0,.29.24.53.53.53.11,0,.21-.03.3-.09l3.58-3.23c.24-.17.57-.11.74.13.02.03.04.06.05.09l2.5,5.77c.12.27.43.39.7.28,0,0,0,0,0,0l2.44-1.06c.27-.12.39-.43.28-.7,0,0,0,0,0,0l-2.5-5.77c-.12-.27,0-.58.28-.7.03-.01.06-.02.1-.03l5.45-.68c.29-.06.47-.35.41-.63-.02-.1-.07-.18-.13-.25L13.4,6.57c-.28-.26-.77-.34-.92.36"/>
    <rect class="cls-3" x="2.4" y="14.16" width="6.81" height="2.09" rx="1.05" ry="1.05"/>
    <rect class="cls-3" x="2.93" y="21.49" width="6.81" height="2.09" rx="1.05" ry="1.05" transform="translate(-11.14 6.96) rotate(-32.6)"/>
    <rect class="cls-3" x="18.64" y="4.73" width="6.81" height="2.09" rx="1.05" ry="1.05" transform="translate(5.24 21.17) rotate(-57.19)"/>
    <rect class="cls-3" x="23.35" y="10.49" width="6.81" height="2.09" rx="1.05" ry="1.05" transform="translate(-2.18 14.92) rotate(-30)"/>
  </g>
  <g>
    <path class="cls-1" d="M44.08,30.81c-.65,0-1.18-.21-1.58-.62-.4-.42-.56-.92-.46-1.51l3.8-21.5h-6.44c-.67,0-1.19-.18-1.55-.55-.36-.36-.54-.79-.54-1.29,0-.55.19-1.02.58-1.39.39-.38.89-.57,1.51-.57h17.92c.63,0,1.14.19,1.53.57.38.38.57.84.57,1.39,0,.5-.18.92-.55,1.29s-.88.55-1.55.55h-7.2l-3.87,21.93c-.07.44-.28.83-.62,1.18s-.85.53-1.54.53Z"/>
    <path class="cls-1" d="M66.18,31.09c-.77,0-1.39-.2-1.87-.6-.48-.4-.81-.94-1-1.62-.19-.68-.23-1.44-.13-2.27v-.11c-.54.68-1.07,1.28-1.59,1.79s-1.02.95-1.5,1.31-.95.65-1.39.87c-.45.22-.88.38-1.29.48-.41.1-.8.15-1.18.15-.73,0-1.35-.22-1.86-.64-.51-.43-.88-1.02-1.09-1.78-.21-.76-.23-1.63-.06-2.61l1.42-8.07c.12-.67.41-1.17.88-1.48.46-.31.98-.47,1.55-.47s1.03.19,1.42.57c.4.38.53.92.4,1.63l-1.33,7.29c-.04.23-.07.51-.1.83-.03.32-.02.61.01.85.04.25.13.37.27.37.1,0,.33-.19.69-.57.35-.38.79-.9,1.3-1.56.51-.66,1.05-1.41,1.64-2.24s1.16-1.71,1.73-2.63,1.08-1.82,1.54-2.72c.42-.8.8-1.31,1.15-1.51.34-.21.77-.31,1.27-.31s.98.17,1.41.51.57.9.43,1.69l-1.34,7.64c-.09.51-.14.94-.13,1.27,0,.34.08.5.23.5.21,0,.54-.25.99-.74.44-.49.98-1.19,1.62-2.09s1.34-1.97,2.13-3.19c.78-1.23,1.62-2.58,2.52-4.07.35-.61.68-1.01.98-1.22.3-.21.74-.31,1.33-.31.3,0,.58.07.85.22.27.14.47.31.59.5l2.24,3.31c.38.55.52,1.06.4,1.53-.12.47-.37.84-.75,1.13-.39.3-.89.41-1.49.34-.6-.07-1.11-.41-1.54-1.01l-.32-.46c-.68,1.04-1.33,1.99-1.93,2.87-.61.87-1.2,1.66-1.77,2.37-.57.71-1.13,1.32-1.69,1.86-.56.53-1.13.98-1.72,1.34s-1.2.63-1.83.81c-.64.18-1.33.27-2.07.27Z"/>
    <path class="cls-1" d="M86.11,31.07c-.7,0-1.36-.15-1.99-.46-.63-.31-1.14-.81-1.53-1.49-.4-.69-.59-1.59-.59-2.72,0-1.38.21-2.71.62-3.99.42-1.27.99-2.41,1.72-3.41.73-1,1.57-1.79,2.54-2.37.96-.58,1.99-.87,3.08-.87s2.08.19,2.98.56c.9.37,1.6.9,2.09,1.57.5.67.66,1.46.5,2.37-.14.82-.4,1.72-.78,2.69-.38.97-.87,1.94-1.45,2.89-.58.96-1.25,1.83-2,2.62-.75.79-1.56,1.42-2.43,1.9-.87.48-1.79.71-2.75.71ZM85.97,26.04c0,.39.06.71.19.97s.25.38.38.38c.35,0,.73-.15,1.14-.46.42-.31.83-.71,1.25-1.22.42-.5.81-1.05,1.18-1.63.36-.58.67-1.16.92-1.72.25-.57.41-1.06.48-1.49.07-.41-.09-.73-.46-.96-.37-.23-.76-.34-1.18-.34-.46,0-.92.23-1.37.69-.46.46-.88,1.05-1.26,1.75-.38.71-.69,1.42-.92,2.15s-.35,1.36-.35,1.89Z"/>
    <path class="cls-2" d="M104.45,31.07c-1.21,0-2.22-.2-3.04-.6-.82-.4-1.48-.93-1.98-1.58-.5-.65-.85-1.36-1.08-2.13-.22-.77-.34-1.51-.34-2.24,0-.66.04-1.41.11-2.25.07-.84.17-1.66.28-2.47.11-.81.22-1.53.31-2.14.1-.61.17-1.03.2-1.24.23-1.3.55-2.58.96-3.83.41-1.26.97-2.44,1.68-3.55.71-1.11,1.64-2.09,2.77-2.94,1.13-.84,2.53-1.51,4.2-2,1.67-.49,3.67-.73,6-.73.79,0,1.44,0,1.98.01.53,0,.97.04,1.31.09.34.05.6.14.79.26.36.25.58.57.69.95s.08.76-.06,1.13c-.14.37-.4.67-.77.9-.19.1-.44.18-.77.25-.33.06-.75.11-1.28.13-.52.03-1.18.04-1.96.04-1.72,0-3.18.17-4.39.5-1.21.33-2.22.79-3.02,1.39-.8.59-1.45,1.28-1.95,2.05s-.89,1.61-1.18,2.51-.52,1.81-.69,2.75c-.06.36-.14.87-.25,1.51-.11.64-.22,1.35-.34,2.12s-.21,1.55-.29,2.35-.12,1.54-.12,2.23c0,.37.06.73.17,1.06.11.33.28.63.49.88s.47.46.78.6c.3.14.65.22,1.03.22.7,0,1.43-.17,2.18-.5.75-.33,1.56-.9,2.41-1.72s1.79-1.94,2.79-3.39c.46-.64.86-1.08,1.2-1.34.34-.26.76-.39,1.25-.39s.94.15,1.33.46c.39.31.59.72.59,1.25,0,.19-.05.42-.15.69-.1.28-.39.79-.89,1.55-1.69,2.49-3.49,4.31-5.39,5.45-1.91,1.14-3.76,1.71-5.58,1.71Z"/>
    <path class="cls-2" d="M120.48,30.81c-.33,0-.66-.07-1-.22-.34-.15-.61-.38-.81-.69-.2-.31-.25-.7-.17-1.18l4.19-23.75c.1-.59.36-1,.77-1.24.41-.24.84-.36,1.3-.36.59,0,1.11.19,1.57.56.46.37.62.9.5,1.57l-4.13,23.45c-.11.6-.4,1.06-.85,1.37-.46.32-.92.48-1.37.48Z"/>
    <path class="cls-2" d="M128.3,30.81c-.54,0-.99-.19-1.35-.57-.36-.38-.49-.88-.38-1.49l1.89-10.8c.1-.57.36-1.03.77-1.39.41-.36.87-.53,1.39-.53s1,.22,1.4.67c.4.45.54,1.02.42,1.71l-1.89,10.84c-.11.57-.4.97-.85,1.2-.46.23-.92.35-1.39.35ZM129.43,11.12c0-.61.21-1.13.63-1.58.42-.44.94-.67,1.57-.67.59,0,1.11.21,1.58.64.46.42.69.96.69,1.6s-.22,1.16-.67,1.59c-.44.43-.98.65-1.6.65-.59,0-1.1-.22-1.54-.65-.44-.43-.66-.96-.66-1.59Z"/>
    <path class="cls-2" d="M137.29,31.07c-.79,0-1.51-.31-2.14-.94-.63-.62-.95-1.6-.95-2.91,0-.57.05-1.22.15-1.94.1-.72.25-1.47.45-2.23.2-.77.43-1.5.7-2.19.27-.7.57-1.3.9-1.8.55-.82,1.26-1.46,2.12-1.91.86-.45,1.84-.76,2.93-.95,1.09-.18,2.23-.27,3.44-.27.51,0,.95.19,1.31.56.36.37.54.78.54,1.22,0,.5-.18.92-.54,1.28-.36.36-.8.54-1.31.54-.81,0-1.58.04-2.31.11-.73.07-1.37.22-1.93.45s-.98.58-1.28,1.04c-.2.32-.39.71-.58,1.16-.19.46-.35.94-.5,1.44-.15.5-.27.99-.35,1.46s-.13.87-.13,1.21c0,.11.01.29.04.54.03.25.13.37.31.37.27,0,.6-.14.98-.43.38-.29.77-.64,1.16-1.04.39-.41.73-.79,1.04-1.14.3-.36.5-.59.6-.71.37-.48.86-.76,1.46-.85s1.1,0,1.49.29c.37.26.57.64.58,1.13.01.49-.12.96-.4,1.42-.5.78-1.07,1.48-1.7,2.1-.63.63-1.29,1.16-1.99,1.61-.7.45-1.39.79-2.09,1.04-.7.24-1.37.36-2,.36Z"/>
    <path class="cls-2" d="M149.67,30.81c-.57,0-1.04-.19-1.41-.56-.37-.37-.51-.86-.41-1.46l4.17-23.63c.11-.64.38-1.1.81-1.37.42-.27.88-.41,1.35-.41.64,0,1.15.18,1.51.53.36.35.48.89.36,1.6l-2.38,13.52c.63-.62,1.26-1.17,1.9-1.66.64-.49,1.28-.88,1.93-1.17.64-.29,1.27-.43,1.88-.43.78,0,1.45.16,2.01.47.56.31.98.71,1.27,1.18.29.48.43.95.43,1.43,0,.96-.36,1.84-1.07,2.65-.71.8-1.55,1.58-2.54,2.33l2.77,4.01c.2.29.31.56.35.82.04.26.03.52-.03.79-.09.41-.32.74-.68,1-.36.25-.75.38-1.17.38-.37,0-.74-.11-1.1-.32s-.66-.48-.89-.82l-3.67-5.3c-.18-.27-.22-.55-.12-.84.1-.29.29-.53.58-.71.82-.48,1.51-.94,2.07-1.4s.99-.86,1.28-1.22c.29-.36.43-.61.43-.76,0-.16-.06-.29-.19-.4s-.28-.16-.46-.16c-.38,0-.89.23-1.51.68s-1.31,1.05-2.07,1.8c-.75.75-1.51,1.57-2.28,2.48l-.92,5.25c-.1.63-.36,1.07-.76,1.32-.4.26-.89.39-1.46.39Z"/>
    <path class="cls-2" d="M169.64,30.81h-2.91c-.63,0-1.14-.16-1.56-.47-.41-.31-.62-.76-.62-1.35s.21-1.08.64-1.38c.42-.3.95-.46,1.56-.46h2.89c.72,0,1.23-.04,1.54-.11.31-.07.48-.24.5-.5.05-.2.03-.36-.04-.48-.07-.13-.21-.25-.41-.39l-2.66-1.76c-.59-.39-1.14-.88-1.66-1.47-.52-.59-.77-1.36-.75-2.33.05-.86.33-1.59.85-2.2.52-.61,1.18-1.07,1.99-1.4.81-.33,1.66-.49,2.56-.49h3.01c.83,0,1.48.14,1.95.41.47.27.71.75.71,1.44,0,.6-.22,1.06-.66,1.39-.44.33-.92.49-1.43.49h-3.59c-.45,0-.8.03-1.05.09s-.38.2-.38.41c0,.15.05.29.15.42.1.13.26.28.5.43l3.4,2.27c.5.33.91.82,1.25,1.49.34.66.43,1.42.28,2.28-.18.96-.59,1.71-1.24,2.24s-1.41.9-2.28,1.11c-.87.21-1.72.31-2.55.31Z"/>
  </g>
</svg>