<?xml version="1.0" encoding="UTF-8"?>
<svg id="Camada_1" data-name="Camada 1" xmlns="http://www.w3.org/2000/svg" viewBox="0 0 128 128">
  <defs>
    <style>
      .cls-1 {
        fill: #d8842a;
      }

      .cls-2 {
        fill: #fff;
      }

      .cls-3 {
        fill: #333;
      }
    </style>
  </defs>
  <circle class="cls-2" cx="64" cy="64" r="55.25"/>
  <path class="cls-3" d="M2.65,63.84C2.11,29.76,30.1,2.95,63.49,2.83c34.07-.12,61.89,27.24,61.88,60.7-.01,33.67-27.59,61.59-61.53,61.64-34.23.05-61.97-29.12-61.18-61.33ZM63.73,113.05c24.05.55,48.28-18.25,49.8-46.26,1.46-27.08-18.22-49.46-45.2-51.76-29.14-2.48-52.86,18.23-54.18,47.39-1.17,25.85,19.81,50.43,49.58,50.63Z"/>
  <g>
    <path class="cls-3" d="M63.97,33.87c4-3.87,8.51-6.12,13.88-6.86,6.29-.86,15.21,2.98,18.5,8.4.27.45.14,1.6-.24,1.91-2.22,1.83-4.52,3.58-6.9,5.19-.42.29-1.62.07-2.01-.34-3.07-3.17-7.26-4.29-11.15-2.81-4.05,1.55-6.12,4.68-6.14,9.37-.02,5.76,0,11.52-.18,17.44-2.53-4.23-6.77-6.3-10.6-8.9-.55-.37-.85-1.43-.88-2.19-.11-2.46-.03-4.92-.05-7.38-.04-3.61-2.22-6.86-5.7-8.08-3.66-1.28-7.25-1.11-10.25,1.69-2.65,2.47-3.42,9.71,1.02,12.3,4.97,2.9,9.9,5.9,14.97,8.63,7.07,3.79,10.52,9.88,11.63,17.53.62,4.25,2.41,7.53,6.8,8.69,4.33,1.14,8.2.3,11.34-3.12.33-.36,1.19-.72,1.48-.54,2.85,1.75,5.64,3.61,8.58,5.53-3.48,5.57-8.32,8.61-14.38,9.8-6.88,1.35-12.91-.61-18.22-5.03-.92-.76-1.56-.81-2.54-.01-9.14,7.37-20.37,7.49-29.31-.07-5.24-4.43-7.34-10.51-6.99-17.34.03-.51.99-1.35,1.56-1.38,2.8-.14,5.62-.04,8.43-.08,1.75-.02,1.66,1.17,1.61,2.31-.15,3.26.7,6.08,3.26,8.3,4.67,4.05,14.64,2.82,16.03-4.84.64-3.56-.82-7.06-4.28-9.09-4.06-2.38-8.23-4.57-12.34-6.87-4.94-2.76-9.3-6.12-11.41-11.63-3.14-8.2-.48-17.74,6.34-22.97,7.3-5.59,17.12-5.76,24.53-.4,1.19.86,2.31,1.82,3.61,2.85Z"/>
    <g>
      <path class="cls-1" d="M88.51,65.47c.07.38.17.67.29.87.12.2.29.33.51.37.22.04.5.01.86-.09.42-.12.73-.32.91-.6.18-.28.28-.61.28-1,0-.39-.06-.8-.18-1.24-.09-.3-.22-.51-.42-.63-.19-.12-.5-.12-.91,0-.38.11-.71.32-1.01.62-.17.17-.34.4-.52.67.06.41.12.75.18,1.04Z"/>
      <path class="cls-1" d="M85.24,47.39c-8.69,2.5-13.7,11.43-11.31,20.11,2.46,8.9,11.66,14.21,20.42,11.78,8.59-2.39,13.5-11.41,11.02-20.24-2.63-9.35-11.11-14.25-20.13-11.65ZM84.95,63.07c-.01.39-.1.73-.26,1.03s-.41.52-.74.65v.05c.46-.05.82.02,1.1.22.28.2.48.51.6.93.19.65.21,1.23.08,1.74-.13.51-.42.96-.85,1.33-.43.38-1,.67-1.7.88-.36.11-.76.21-1.2.29-.44.08-.9.16-1.37.21l-.17-1.15c.31-.07.59-.13.84-.18.25-.05.49-.11.72-.17.23-.06.45-.13.67-.21.64-.22,1.09-.53,1.34-.94.26-.41.3-.9.14-1.47-.05-.17-.13-.31-.25-.42-.12-.11-.27-.18-.47-.21-.2-.03-.45,0-.75.09l-1.62.44-.16-1.06,1.58-.45c.52-.16.85-.41,1-.74.15-.34.15-.78,0-1.31-.08-.28-.23-.45-.43-.49-.21-.05-.57,0-1.1.15-.34.1-.7.21-1.1.34-.4.13-.74.25-1.03.35l-.34-1.09c.43-.21.86-.39,1.27-.55.41-.15.78-.28,1.11-.37.87-.25,1.55-.3,2.01-.15s.79.52.96,1.11c.11.38.16.76.14,1.14ZM88.26,63.15c.21-.33.46-.59.74-.79.29-.2.63-.36,1.03-.47.68-.2,1.23-.19,1.64.02.41.21.69.58.83,1.11.23.82.32,1.55.27,2.19-.05.64-.26,1.18-.64,1.62-.38.44-.96.77-1.73.99-.57.16-1.05.23-1.45.2-.4-.03-.74-.18-1.02-.44-.28-.26-.51-.65-.69-1.18-.18-.52-.33-1.19-.44-2.01-.14-.99-.18-1.8-.14-2.45.04-.64.17-1.17.39-1.57.22-.4.52-.72.92-.96.39-.24.86-.44,1.42-.6.13-.04.3-.08.5-.14.21-.05.43-.1.69-.15.25-.04.51-.06.76-.06l.05,1.07c-.19.04-.37.08-.54.12-.17.04-.35.09-.54.15l-.69.2c-.34.1-.63.23-.85.39-.22.16-.39.38-.5.67-.11.29-.16.67-.16,1.15,0,.31.03.67.07,1.08.03-.05.06-.1.09-.15ZM99.89,60.55c.11.59.17,1.15.16,1.7,0,.54-.09,1.05-.25,1.52-.16.47-.42.88-.79,1.22-.37.34-.86.61-1.49.79-.58.17-1.09.22-1.54.15-.45-.06-.84-.27-1.16-.61-.32-.34-.58-.83-.76-1.47-.16-.57-.28-1.15-.39-1.73-.1-.58-.15-1.15-.15-1.69,0-.55.08-1.05.25-1.52.16-.47.42-.87.78-1.22.36-.35.84-.61,1.46-.78s1.11-.22,1.56-.16c.45.07.83.27,1.15.61.32.34.57.82.75,1.46.17.58.31,1.16.42,1.75Z"/>
      <path class="cls-1" d="M96.22,58.15c-.37.11-.65.29-.84.55-.19.26-.32.57-.38.93s-.07.76-.03,1.18c.04.42.11.85.21,1.29.1.44.2.85.3,1.25.16.56.39.93.68,1.11.29.18.66.21,1.12.07.38-.11.68-.3.87-.56.2-.26.33-.57.39-.94.06-.36.07-.76.03-1.18-.04-.42-.11-.85-.21-1.28-.1-.43-.2-.84-.32-1.24-.16-.57-.38-.95-.68-1.13-.29-.18-.68-.2-1.15-.07Z"/>
    </g>
  </g>
</svg>