<?xml version="1.0" encoding="UTF-8"?>
<svg id="Camada_1" data-name="Camada 1" xmlns="http://www.w3.org/2000/svg" viewBox="0 0 80 80">
  <defs>
    <style>
      .cls-1 {
        fill: #d8842a;
      }

      .cls-2 {
        fill: #fff;
      }

      .cls-3 {
        fill: #333;
      }
    </style>
  </defs>
  <ellipse class="cls-2" cx="40" cy="40" rx="33.76" ry="33.87"/>
  <path class="cls-3" d="M2.51,39.9C2.18,19.01,19.28,2.57,39.69,2.5c20.82-.07,37.82,16.7,37.81,37.21,0,20.64-16.86,37.76-37.6,37.79-20.92.03-37.87-17.85-37.39-37.59ZM39.83,70.07c14.7.34,29.51-11.19,30.43-28.36.89-16.6-11.13-30.32-27.62-31.73-17.81-1.52-32.3,11.18-33.11,29.05-.71,15.85,12.11,30.91,30.3,31.04Z"/>
  <g>
    <path class="cls-3" d="M39.98,21.53c2.44-2.37,5.2-3.75,8.48-4.2,3.85-.53,9.3,1.83,11.3,5.15.17.28.08.98-.14,1.17-1.36,1.12-2.76,2.19-4.22,3.18-.26.18-.99.04-1.23-.21-1.87-1.95-4.44-2.63-6.81-1.72-2.48.95-3.74,2.87-3.75,5.74-.01,3.53,0,7.06-.11,10.69-1.55-2.59-4.14-3.86-6.48-5.46-.34-.23-.52-.88-.54-1.34-.07-1.51-.02-3.02-.03-4.52-.02-2.22-1.36-4.21-3.49-4.95-2.24-.78-4.43-.68-6.26,1.03-1.62,1.52-2.09,5.95.62,7.54,3.04,1.78,6.05,3.62,9.15,5.29,4.32,2.32,6.43,6.06,7.11,10.75.38,2.6,1.47,4.61,4.16,5.33,2.65.7,5.01.19,6.93-1.91.2-.22.73-.44.9-.33,1.74,1.07,3.45,2.21,5.24,3.39-2.13,3.41-5.09,5.28-8.79,6.01-4.21.83-7.89-.38-11.13-3.09-.56-.47-.95-.49-1.55,0-5.59,4.52-12.45,4.59-17.91-.04-3.2-2.71-4.49-6.44-4.27-10.63.02-.31.61-.83.95-.84,1.71-.09,3.44-.02,5.15-.05,1.07-.02,1.01.72.98,1.42-.09,2,.43,3.73,1.99,5.09,2.85,2.48,8.95,1.73,9.8-2.96.39-2.18-.5-4.33-2.62-5.57-2.48-1.46-5.03-2.8-7.54-4.21-3.02-1.69-5.68-3.75-6.97-7.13-1.92-5.03-.29-10.88,3.88-14.08,4.46-3.43,10.46-3.53,14.99-.25.73.53,1.41,1.11,2.2,1.74Z"/>
    <g>
      <path class="cls-1" d="M54.98,40.9c.04.23.1.41.18.54.08.12.18.2.31.23.13.03.31,0,.53-.06.26-.07.45-.2.56-.37.11-.17.17-.37.17-.61,0-.24-.03-.49-.11-.76-.05-.18-.14-.31-.25-.39-.12-.08-.3-.08-.56,0-.23.07-.44.19-.62.38-.1.11-.21.24-.32.41.04.25.08.46.11.64Z"/>
      <path class="cls-1" d="M52.98,29.82c-5.31,1.53-8.37,7-6.91,12.33,1.5,5.46,7.13,8.71,12.48,7.22,5.25-1.46,8.25-6.99,6.73-12.41-1.61-5.73-6.79-8.74-12.3-7.14ZM52.8,39.43c0,.24-.06.45-.16.63s-.25.32-.45.4v.03c.28-.03.5.01.67.14.17.12.29.31.37.57.11.4.13.75.05,1.07-.08.31-.26.59-.52.82-.26.23-.61.41-1.04.54-.22.07-.46.13-.74.18-.27.05-.55.1-.84.13l-.11-.7c.19-.04.36-.08.51-.11.15-.03.3-.07.44-.1.14-.04.28-.08.41-.13.39-.13.66-.33.82-.58.16-.25.18-.55.08-.9-.03-.1-.08-.19-.15-.26-.07-.07-.17-.11-.29-.13-.12-.02-.27,0-.46.06l-.99.27-.1-.65.96-.28c.32-.1.52-.25.61-.46.09-.21.09-.48,0-.8-.05-.17-.14-.27-.27-.3-.13-.03-.35,0-.67.09-.21.06-.43.13-.67.21-.24.08-.45.15-.63.22l-.21-.67c.27-.13.52-.24.78-.34.25-.09.48-.17.68-.23.53-.15.94-.18,1.23-.09s.48.32.58.68c.07.23.09.46.09.7ZM54.83,39.48c.13-.2.28-.36.45-.48.17-.12.38-.22.63-.29.42-.12.75-.12,1,.01.25.13.42.35.51.68.14.5.19.95.17,1.34-.03.39-.16.72-.39.99-.23.27-.58.47-1.05.61-.35.1-.64.14-.89.12-.24-.02-.45-.11-.62-.27-.17-.16-.31-.4-.42-.72-.11-.32-.2-.73-.27-1.23-.08-.6-.11-1.1-.09-1.5.02-.4.1-.72.24-.96.13-.25.32-.44.56-.59.24-.15.53-.27.87-.37.08-.02.18-.05.31-.08.13-.03.27-.06.42-.09.15-.03.31-.04.46-.03l.03.65c-.12.02-.23.05-.33.07-.1.03-.21.06-.33.09l-.42.12c-.21.06-.38.14-.52.24-.14.1-.24.24-.3.41-.07.18-.1.41-.1.7,0,.19.02.41.04.66.02-.03.04-.06.05-.09ZM61.93,37.88c.07.36.1.71.1,1.04,0,.33-.05.64-.15.93-.1.29-.26.54-.48.75-.22.21-.53.37-.91.48-.35.1-.67.13-.94.09-.28-.04-.51-.16-.71-.37-.2-.21-.35-.51-.47-.9-.1-.35-.17-.7-.24-1.06-.06-.36-.09-.7-.09-1.04,0-.34.05-.65.15-.93.1-.29.26-.54.47-.75.22-.21.52-.37.89-.48s.68-.14.95-.1c.27.04.51.16.7.37.19.21.35.51.46.89.1.35.19.71.26,1.07Z"/>
      <path class="cls-1" d="M59.69,36.41c-.23.07-.4.18-.51.34-.12.16-.19.35-.23.57s-.04.46-.02.72c.03.26.07.52.13.79.06.27.12.52.18.77.1.34.24.57.41.68.18.11.41.13.69.05.24-.07.41-.18.53-.34.12-.16.2-.35.24-.58.04-.22.04-.46.02-.72-.03-.26-.07-.52-.13-.78-.06-.26-.12-.52-.19-.76-.1-.35-.23-.58-.41-.69-.18-.11-.41-.12-.7-.04Z"/>
    </g>
  </g>
</svg>