<?xml version="1.0" encoding="UTF-8"?>
<svg id="Camada_1" data-name="Camada 1" xmlns="http://www.w3.org/2000/svg" viewBox="0 0 581.56 214.32">
  <defs>
    <style>
      .cls-1 {
        fill: #d8842a;
      }

      .cls-2 {
        font-size: 86.17px;
        font-style: italic;
      }

      .cls-2, .cls-3 {
        fill: #e6e6e6;
      }

      .cls-4 {
        letter-spacing: 0em;
      }

      .cls-5 {
        font-family: Exo-BoldItalic, Exo;
        font-weight: 700;
      }

      .cls-6 {
        font-family: Exo-Italic, Exo;
      }
    </style>
  </defs>
  <text class="cls-2" transform="translate(196.96 98.35)"><tspan class="cls-6"><tspan x="0" y="0">Sma</tspan><tspan class="cls-4" x="178.29" y="0">r</tspan><tspan x="213.19" y="0">t</tspan></tspan><tspan class="cls-5"><tspan x="0" y="77">Click360°</tspan></tspan></text>
  <g>
    <path class="cls-3" d="M1.85,106.92C1.03,54.88,43.75,13.94,94.74,13.76c52.02-.18,94.5,41.59,94.48,92.69-.02,51.41-42.13,94.04-93.95,94.11-52.26.07-94.63-44.46-93.41-93.64ZM95.11,182.06c36.72.84,73.72-27.87,76.03-70.63,2.24-41.34-27.81-75.52-69.01-79.03-44.49-3.79-80.71,27.83-82.72,72.35-1.78,39.48,30.25,77,75.7,77.31Z"/>
    <g>
      <path class="cls-3" d="M95.48,61.15c6.11-5.91,13-9.34,21.2-10.47,9.61-1.32,23.23,4.55,28.24,12.83.41.69.21,2.44-.36,2.91-3.39,2.8-6.9,5.46-10.54,7.92-.65.44-2.47.1-3.08-.53-4.68-4.85-11.08-6.55-17.02-4.28-6.19,2.36-9.35,7.14-9.37,14.3-.03,8.8,0,17.59-.28,26.63-3.86-6.46-10.34-9.62-16.18-13.6-.84-.57-1.29-2.18-1.34-3.34-.17-3.75-.04-7.51-.08-11.27-.06-5.52-3.39-10.48-8.71-12.33-5.59-1.95-11.06-1.7-15.64,2.58-4.04,3.78-5.22,14.82,1.55,18.78,7.59,4.43,15.11,9.02,22.86,13.17,10.8,5.79,16.07,15.09,17.76,26.77.94,6.48,3.67,11.49,10.38,13.26,6.61,1.75,12.52.46,17.32-4.76.5-.55,1.82-1.1,2.26-.83,4.36,2.67,8.61,5.51,13.1,8.44-5.32,8.5-12.71,13.15-21.95,14.97-10.51,2.06-19.72-.94-27.81-7.69-1.4-1.17-2.38-1.23-3.87-.02-13.96,11.26-31.1,11.44-44.76-.11-7.99-6.76-11.21-16.04-10.67-26.48.04-.77,1.52-2.06,2.37-2.1,4.28-.22,8.58-.06,12.88-.12,2.67-.04,2.53,1.79,2.45,3.53-.23,4.98,1.07,9.29,4.98,12.68,7.13,6.18,22.36,4.3,24.47-7.38.98-5.43-1.25-10.78-6.54-13.88-6.2-3.63-12.57-6.98-18.84-10.48-7.54-4.21-14.2-9.34-17.43-17.76-4.79-12.52-.73-27.09,9.69-35.07,11.15-8.54,26.14-8.8,37.45-.61,1.81,1.31,3.52,2.77,5.51,4.34Z"/>
      <g>
        <path class="cls-1" d="M132.94,109.4c.11.58.25,1.02.44,1.33.19.31.45.5.78.56.33.06.77.02,1.32-.14.65-.19,1.11-.49,1.4-.92.28-.43.42-.93.43-1.52,0-.59-.09-1.22-.27-1.9-.13-.45-.34-.77-.63-.96-.29-.19-.76-.19-1.39,0-.58.17-1.09.48-1.55.95-.26.27-.52.61-.79,1.02.1.62.19,1.15.27,1.59Z"/>
        <path class="cls-1" d="M127.95,81.81c-13.26,3.82-20.92,17.45-17.26,30.71,3.75,13.59,17.81,21.7,31.18,17.98,13.12-3.65,20.62-17.42,16.82-30.91-4.02-14.27-16.96-21.76-30.74-17.79ZM127.51,105.74c-.02.59-.16,1.12-.4,1.58s-.62.79-1.14.99v.08c.7-.08,1.25.03,1.68.34.43.31.73.78.91,1.42.29.99.32,1.88.12,2.66-.21.78-.64,1.46-1.29,2.03-.66.57-1.52,1.02-2.6,1.34-.55.17-1.16.32-1.84.45-.68.13-1.38.24-2.09.32l-.27-1.75c.47-.11.9-.2,1.28-.28.38-.08.75-.16,1.1-.26.35-.09.69-.2,1.03-.33.98-.33,1.66-.81,2.05-1.43.39-.62.46-1.37.21-2.24-.07-.26-.2-.47-.38-.65-.18-.17-.42-.28-.72-.32-.3-.04-.69,0-1.15.14l-2.47.67-.25-1.62,2.41-.69c.79-.24,1.3-.62,1.53-1.14.23-.52.23-1.18,0-2-.12-.43-.34-.68-.66-.75-.32-.07-.88,0-1.67.23-.51.15-1.07.32-1.68.51-.61.19-1.13.38-1.57.54l-.52-1.66c.66-.32,1.31-.6,1.94-.84.63-.23,1.19-.42,1.7-.57,1.33-.38,2.36-.46,3.07-.23s1.2.79,1.46,1.69c.17.58.24,1.16.21,1.75ZM132.57,105.86c.32-.5.7-.9,1.14-1.2.44-.3.96-.54,1.57-.72,1.04-.3,1.87-.29,2.5.03.63.32,1.05.88,1.27,1.69.35,1.25.48,2.37.41,3.34-.07.97-.4,1.8-.98,2.47-.58.67-1.46,1.18-2.64,1.51-.87.25-1.61.35-2.22.3-.61-.05-1.13-.27-1.56-.68-.43-.4-.78-1-1.05-1.79-.28-.8-.5-1.82-.67-3.07-.21-1.5-.28-2.75-.22-3.73.06-.98.26-1.78.59-2.4.33-.61.8-1.1,1.4-1.47.6-.36,1.32-.67,2.16-.91.2-.06.45-.13.76-.21.31-.08.66-.16,1.05-.22.39-.06.77-.09,1.16-.08l.07,1.63c-.29.06-.56.12-.82.19-.26.07-.53.14-.82.23l-1.06.3c-.53.15-.96.35-1.3.59-.34.24-.59.59-.76,1.02-.17.44-.25,1.02-.24,1.75,0,.47.04,1.03.11,1.65.04-.08.09-.15.13-.22ZM150.32,101.89c.17.9.25,1.76.25,2.59,0,.83-.13,1.61-.38,2.32-.24.72-.64,1.34-1.2,1.87-.56.52-1.31.92-2.27,1.2-.88.25-1.67.33-2.36.23-.69-.1-1.28-.41-1.78-.93-.49-.52-.88-1.27-1.16-2.25-.24-.87-.43-1.75-.59-2.64-.16-.89-.23-1.75-.23-2.59,0-.84.13-1.61.38-2.32.25-.71.64-1.33,1.18-1.86.54-.53,1.29-.93,2.23-1.2s1.7-.34,2.39-.24c.69.1,1.27.41,1.76.93.49.52.87,1.26,1.15,2.22.25.88.47,1.77.64,2.67Z"/>
        <path class="cls-1" d="M144.72,98.22c-.56.16-.99.44-1.28.84-.29.4-.48.87-.57,1.43s-.1,1.16-.04,1.8c.07.64.17,1.3.32,1.97.15.67.3,1.3.46,1.91.25.86.59,1.42,1.04,1.7.44.28,1.01.31,1.71.11.59-.17,1.03-.45,1.34-.85.3-.4.5-.88.59-1.43.09-.56.1-1.16.04-1.8-.07-.64-.17-1.29-.32-1.95-.15-.66-.31-1.29-.48-1.89-.24-.87-.58-1.45-1.03-1.72-.45-.27-1.04-.31-1.76-.1Z"/>
      </g>
    </g>
  </g>
</svg>