<?xml version="1.0" encoding="UTF-8"?>
<svg id="Camada_1" data-name="Camada 1" xmlns="http://www.w3.org/2000/svg" viewBox="0 0 780 140">
  <defs>
    <style>
      .cls-1 {
        font-size: 86.17px;
        font-style: italic;
      }

      .cls-1, .cls-2 {
        fill: #333;
      }

      .cls-3 {
        fill: #d8842a;
      }

      .cls-4 {
        font-family: Exo-BoldItalic, Exo;
        font-weight: 700;
        letter-spacing: 0em;
      }

      .cls-5, .cls-6 {
        font-family: Exo-Italic, Exo;
      }

      .cls-6 {
        letter-spacing: 0em;
      }
    </style>
  </defs>
  <text class="cls-1" transform="translate(135.9 98.73)"><tspan class="cls-5" x="0" y="0">Sma</tspan><tspan class="cls-6" x="178.29" y="0">r</tspan><tspan class="cls-5" x="213.19" y="0">t</tspan><tspan class="cls-4" x="246.37" y="0">Click360°</tspan></text>
  <g>
    <g>
      <path class="cls-2" d="M21.83,65.59c-.42-26.87,21.57-48.01,47.81-48.1,26.78-.09,48.64,21.47,48.63,47.86,0,26.54-21.69,48.56-48.36,48.59-26.9.04-48.71-22.96-48.08-48.35ZM69.83,104.38c18.9.43,37.95-14.39,39.14-36.47,1.15-21.35-14.32-39-35.52-40.81-22.9-1.96-41.54,14.37-42.58,37.36-.92,20.38,15.57,39.76,38.96,39.92Z"/>
      <path class="cls-2" d="M70.02,41.96c3.14-3.05,6.69-4.82,10.91-5.4,4.95-.68,11.96,2.35,14.54,6.63.21.35.11,1.26-.19,1.5-1.74,1.45-3.55,2.82-5.43,4.09-.33.23-1.27.05-1.58-.27-2.41-2.5-5.71-3.38-8.76-2.21-3.19,1.22-4.81,3.69-4.82,7.38-.01,4.54,0,9.08-.14,13.75-1.99-3.34-5.32-4.97-8.33-7.02-.43-.29-.66-1.13-.69-1.73-.09-1.94-.02-3.88-.04-5.82-.03-2.85-1.74-5.41-4.48-6.37-2.88-1.01-5.7-.88-8.05,1.33-2.08,1.95-2.69,7.65.8,9.7,3.91,2.29,7.78,4.66,11.77,6.8,5.56,2.99,8.27,7.79,9.14,13.82.48,3.35,1.89,5.93,5.35,6.85,3.4.9,6.44.24,8.91-2.46.26-.28.94-.57,1.16-.43,2.24,1.38,4.43,2.85,6.74,4.36-2.74,4.39-6.54,6.79-11.3,7.73-5.41,1.07-10.15-.48-14.32-3.97-.72-.6-1.22-.64-1.99-.01-7.18,5.81-16.01,5.91-23.04-.06-4.11-3.49-5.77-8.28-5.49-13.67.02-.4.78-1.06,1.22-1.09,2.2-.11,4.42-.03,6.63-.06,1.37-.02,1.3.92,1.26,1.82-.12,2.57.55,4.8,2.56,6.55,3.67,3.19,11.51,2.22,12.6-3.81.51-2.8-.64-5.57-3.37-7.17-3.19-1.87-6.47-3.6-9.7-5.41-3.88-2.17-7.31-4.82-8.97-9.17-2.47-6.46-.37-13.99,4.99-18.11,5.74-4.41,13.45-4.54,19.28-.32.93.68,1.81,1.43,2.83,2.24Z"/>
    </g>
    <g>
      <path class="cls-3" d="M89.3,66.87c.06.3.13.53.23.69.1.16.23.26.4.29.17.03.4,0,.68-.07.33-.1.57-.25.72-.47.15-.22.22-.48.22-.79,0-.3-.04-.63-.14-.98-.07-.23-.18-.4-.33-.5-.15-.1-.39-.1-.72,0-.3.09-.56.25-.8.49-.13.14-.27.31-.41.53.05.32.1.59.14.82Z"/>
      <path class="cls-3" d="M86.74,52.62c-6.83,1.97-10.77,9.01-8.89,15.86,1.93,7.02,9.17,11.21,16.05,9.29,6.75-1.88,10.61-8.99,8.66-15.96-2.07-7.37-8.73-11.24-15.82-9.19ZM86.51,64.98c-.01.3-.08.58-.21.81s-.32.41-.58.51v.04c.36-.04.65.02.87.18.22.16.38.4.47.73.15.51.17.97.06,1.37-.11.4-.33.75-.67,1.05-.34.3-.78.53-1.34.69-.28.09-.6.17-.95.23-.35.07-.71.12-1.08.17l-.14-.9c.24-.06.46-.1.66-.14.2-.04.39-.08.57-.13.18-.05.36-.1.53-.17.5-.17.85-.42,1.06-.74.2-.32.24-.71.11-1.16-.04-.13-.1-.24-.19-.33-.09-.09-.21-.15-.37-.17-.16-.02-.35,0-.59.07l-1.27.35-.13-.84,1.24-.36c.41-.12.67-.32.79-.59.12-.27.12-.61,0-1.03-.06-.22-.18-.35-.34-.39-.16-.04-.45,0-.86.12-.26.08-.55.16-.87.26-.31.1-.58.19-.81.28l-.27-.86c.34-.17.67-.31,1-.43.32-.12.61-.22.87-.29.69-.2,1.21-.24,1.58-.12s.62.41.75.87c.09.3.12.6.11.9ZM89.11,65.04c.17-.26.36-.46.58-.62.22-.16.49-.28.81-.37.54-.15.96-.15,1.29.01.32.16.54.45.65.87.18.65.25,1.22.21,1.72-.04.5-.2.93-.5,1.27-.3.35-.75.61-1.36.78-.45.13-.83.18-1.14.16-.31-.03-.58-.14-.8-.35-.22-.21-.4-.52-.54-.93-.14-.41-.26-.94-.35-1.58-.11-.78-.14-1.42-.11-1.93.03-.51.13-.92.31-1.24.17-.32.41-.57.72-.76.31-.19.68-.34,1.11-.47.1-.03.23-.07.39-.11.16-.04.34-.08.54-.11.2-.03.4-.05.6-.04l.04.84c-.15.03-.29.06-.42.1-.13.04-.27.07-.42.12l-.54.16c-.27.08-.49.18-.67.31-.18.13-.31.3-.39.53-.09.23-.13.53-.12.9,0,.24.02.53.06.85.02-.04.05-.08.07-.12ZM98.25,62.99c.09.46.13.91.13,1.34,0,.43-.07.83-.19,1.2-.13.37-.33.69-.62.96-.29.27-.68.48-1.17.62-.45.13-.86.17-1.21.12-.36-.05-.66-.21-.92-.48-.25-.27-.45-.66-.6-1.16-.12-.45-.22-.91-.3-1.36-.08-.46-.12-.9-.12-1.34,0-.43.07-.83.19-1.2.13-.37.33-.69.61-.96.28-.27.66-.48,1.15-.62s.88-.18,1.23-.12c.35.05.65.21.9.48.25.27.45.65.59,1.15.13.45.24.91.33,1.38Z"/>
      <path class="cls-3" d="M95.37,61.1c-.29.08-.51.23-.66.43-.15.2-.25.45-.3.74s-.05.6-.02.93c.03.33.09.67.16,1.02.07.34.15.67.24.98.13.44.3.73.53.88.23.14.52.16.88.06.3-.09.53-.23.69-.44.16-.21.26-.45.3-.74.05-.29.05-.6.02-.93-.03-.33-.09-.67-.17-1.01-.08-.34-.16-.67-.25-.97-.12-.45-.3-.75-.53-.89-.23-.14-.53-.16-.9-.05Z"/>
    </g>
  </g>
</svg>